PathFileType	4	(X/Y/Z)	34_2_30_p1_0-456_filt_butterworth.trc
DataRate	CameraRate	NumFrames	NumMarkers	Units	OrigDataRate	OrigDataStartFrame	OrigNumFrames
53.0	53.0	7	27	m	53.0	171	456
Frame#	Time	RHip			RKnee			RAnkle			RBigToe			RSmallToe			RHeel			LHip			LKnee			LAnkle			LBigToe			LSmallToe			LHeel			Neck			Head			Nose			RShoulder			RElbow			RWrist			RThumb			RIndex			RPinky			LShoulder			LElbow			LWrist			LThumb			LIndex			LPinky			
		X1	Y1	Z1	X2	Y2	Z2	X3	Y3	Z3	X4	Y4	Z4	X5	Y5	Z5	X6	Y6	Z6	X7	Y7	Z7	X8	Y8	Z8	X9	Y9	Z9	X10	Y10	Z10	X11	Y11	Z11	X12	Y12	Z12	X13	Y13	Z13	X14	Y14	Z14	X15	Y15	Z15	X16	Y16	Z16	X17	Y17	Z17	X18	Y18	Z18	X19	Y19	Z19	X20	Y20	Z20	X21	Y21	Z21	X22	Y22	Z22	X23	Y23	Z23	X24	Y24	Z24	X25	Y25	Z25	X26	Y26	Z26	X27	Y27	Z27	
171	3.2264150943396226	0.40495320996110384	0.5260048495377512	0.9733259467189386	0.4057998726605467	0.6585426362838962	1.3787429610868915	0.3861982686083023	0.7840509681013894	1.7500915145648634	0.346143261382472	0.5915277509258565	1.7817297625111748	0.4095280524867545	0.6017768763880186	1.786861466013268	0.34744572418451974	0.8772930190844345	1.7930530441122785	0.16352213062926915	0.5406084465787805	0.9809268491812649	0.16706712248667896	0.6425155569062464	1.3757037432902628	0.17398514343648827	0.7517222660061971	1.7320630386468217	0.19510249039916083	0.5555524470159002	1.7677546635502663	0.13951594238159395	0.5960832284699084	1.7765720320293832	0.18871925476152543	0.8117087893169425	1.7922343656869169	0.2813993534793017	0.41406795072393143	0.4387066593447034	0.27945184882108565	0.2819566403694579	0.19175376626119792	0.282889024003972	0.2689045745041566	0.34983735358431606	0.4541798038622258	0.42689606549914405	0.48600258933887935	0.5500639012601057	0.41508968515027267	0.7172649113885878	0.3743755617772912	0.33362459171661435	0.8845493553745243	0.2693740558558462	0.32832878642003116	0.9231108743603745	0.25798029359081354	0.3377175343141861	0.9528738330019162	0.27107623310097606	0.3565489128227006	0.9674762237801591	0.1292118464466185	0.4336259418888643	0.5041636315578917	0.040749887186533	0.4779772409803935	0.764732101525393	0.2179042995519952	0.32460188713072774	0.8788279433777995	0.32631808873580975	0.27996649505258075	0.895176106008097	0.334391699878995	0.28262681655684435	0.9309798025799005	0.2824703154588788	0.3569589515058438	0.9682727662476276
172	3.2452830188679247	0.4046938796286178	0.5267789008787533	0.9744883713438636	0.4056997748791244	0.6589206753096466	1.3775999225010658	0.3875673734215256	0.7791431314985682	1.7483425218197342	0.34586780540417866	0.5907356624128357	1.7804738353493121	0.40950453881812376	0.6019486877555028	1.7869271459853258	0.3473728316958544	0.8772290449356889	1.7926609178381336	0.16337391911862487	0.541102859902224	0.9820368956784863	0.1668357585683235	0.6430404700862132	1.377160967643956	0.1735952315586688	0.7523326845671205	1.7339317916713812	0.19504743216288944	0.5556526610473486	1.7678555003519374	0.13961203439636383	0.5958903403992027	1.7765970633590413	0.18901315482459102	0.8126457262618576	1.792369363816874	0.28137037869360537	0.41402219039700294	0.43862166703517647	0.27948973404621497	0.2821620072887752	0.19163645618680156	0.2827357900743681	0.2680042775567973	0.3499429747800939	0.45261302902208694	0.4223488569836844	0.48613813586395604	0.5491343220635831	0.41879175185457646	0.7175459414416823	0.3735538072190953	0.33403747250908494	0.884370700111453	0.2689038364233228	0.32687135746369855	0.9192839376096694	0.2580827367669709	0.3377487869560055	0.9530025749746458	0.27066955232612216	0.3563852352407937	0.9671190130986929	0.12914699679865993	0.43369723220789586	0.5038165600801705	0.04067034165282415	0.47738476893404336	0.7628681808064987	0.2173547911934735	0.3243259341036169	0.8787216917525908	0.3243456603107308	0.2800308454473155	0.8954155402990012	0.33395198250258473	0.278969023207885	0.9309279589919914	0.2821243774467152	0.35666775742935153	0.96818649650493
173	3.2641509433962264	0.4046742311861503	0.5268970788368397	0.9745340711586827	0.4055656575587041	0.6593572636728998	1.37609543173842	0.389335278038783	0.7722519339243005	1.7458926502951453	0.34548918120154665	0.589578470276559	1.7786410286602692	0.4095668224451369	0.6021305319135328	1.787006428033363	0.347683132581861	0.8776398734909968	1.791670438567994	0.16331500201372984	0.5413524994239344	0.9822193598757342	0.16679290380271436	0.6432026526001609	1.3775596262283107	0.17335257856504263	0.7527344285779286	1.7352828276842938	0.19500236638898424	0.5557846715899859	1.7679112662671135	0.13915984408191281	0.5973422718424326	1.7771757396138315	0.1898002890200202	0.8157748498583067	1.792569048551034	0.2813050690233382	0.41408553593381564	0.4388746662067011	0.279182979219383	0.2812425895063092	0.19202247491503427	0.28156033347991144	0.2648018761811296	0.3502838553058241	0.45150064386946415	0.4191226914105358	0.4862755459760429	0.5488080368167558	0.41984448101938066	0.7176382711821265	0.3724832634442896	0.3371551920224558	0.8837557949122732	0.2686574446583382	0.32539605395608845	0.917542687880184	0.2580709545630374	0.3376564635724201	0.9531797421749738	0.2701663472463402	0.3547033510064932	0.9658352362740299	0.1290752614463454	0.4331191920840557	0.5028418143081403	0.04055199723759896	0.4769135700082946	0.7609466015982391	0.21532142000967475	0.32476847597854874	0.8790748650150022	0.3225459611973447	0.2800222417129898	0.8960398367085591	0.33291861475962026	0.2811627339772955	0.9310351944162947	0.2821832455924763	0.35661021215185146	0.9680977647390737
174	3.2830188679245285	0.40483891149939977	0.5264346642363154	0.9735523036238101	0.40548148739168083	0.6595056705484176	1.3753706140566457	0.39052746407258965	0.7673327362097859	1.7441272645362453	0.34524322495946447	0.5887212827699828	1.7773533964113066	0.40967523729103067	0.6022621294686052	1.7870538607319957	0.3487346680209982	0.878540465786831	1.7903597627189447	0.1633097088178618	0.5414157544028478	0.9816708915926425	0.1668212561514999	0.6431492147965897	1.3774831876374305	0.17331680414055692	0.7528483987321082	1.7357224394831159	0.19498872711143192	0.5558606745723823	1.767909966715771	0.13766930005641126	0.6017809944453988	1.7787270445518408	0.190810861060606	0.8201826980521005	1.7928478968872936	0.281193232396815	0.41433031332510833	0.43975802031253153	0.2782755751774182	0.27816016580829217	0.19339155880540093	0.2792480668173758	0.2600152058153306	0.3507784029868573	0.45120124117623506	0.41821169449072765	0.48639428793372125	0.5487955002733946	0.4195657030339888	0.7176233995734446	0.3711060262883087	0.3416669713732834	0.8829028943274261	0.2680991506591486	0.3237129401501405	0.9165483164537304	0.257966996537052	0.3373994426575861	0.9530159516613101	0.2689905158474708	0.35068823903722984	0.963845083080935	0.12903819551032752	0.4326171782153855	0.5014956527896312	0.04050680622521404	0.47645648075931835	0.760331254953379	0.21246805968243773	0.3255554464116796	0.8801365635693956	0.3214100212023309	0.2800221681589986	0.8964432719573237	0.33203430798156136	0.28434265554590105	0.9311823545678953	0.28220482643794564	0.35661665138602355	0.9679846798500099
175	3.30188679245283	0.40505896985338813	0.5257589521363429	0.9721780717199604	0.4055035155299441	0.6592056742029183	1.3760456303544946	0.390772065690255	0.7659422962286492	1.7435661323729807	0.3452842564867641	0.5886565920775754	1.7774305082530861	0.40974739523555925	0.6022726664420388	1.7870397595274385	0.35028219105302116	0.879447392855575	1.789443069368402	0.1633754703060118	0.5413223125342603	0.9807885607126787	0.16678934066750525	0.6430465284554734	1.3773735456472136	0.17336469794570822	0.7528327482498213	1.7356817194216028	0.1949984113685011	0.5558264043293856	1.767897008353466	0.1356861720621772	0.60761544919686	1.7808055129863105	0.19154309725240418	0.8233871266142121	1.7931969553394358	0.28109255299170416	0.4145742435556599	0.4409951890679862	0.2770568374631889	0.27385232390052017	0.19533168983323965	0.27681909027454615	0.25614936273984545	0.35117243806559706	0.4512943296890096	0.4184505255749356	0.48644023855791835	0.5488028293359947	0.4192645758808254	0.7176057609868963	0.37005973174638646	0.3448311601302673	0.8822707402276629	0.2671913160487551	0.3222490474118408	0.9147958524592417	0.2578143698908714	0.33690922242286503	0.9522724979109539	0.26746064453168383	0.34576837419576417	0.962192307649937	0.129048192923577	0.4326695898687666	0.5004517457997961	0.04052083620049337	0.4758693397121425	0.7608095278250514	0.21034816627078617	0.3260966209028397	0.8815189579128941	0.32090087941874296	0.28030627475275305	0.8963241100071724	0.33164906474649813	0.2855479283914091	0.9311433952630629	0.2821361856240972	0.3565959684788904	0.9678529395030803
176	3.320754716981132	0.40522633429350413	0.5252696463088264	0.9709976464352162	0.40562506610390814	0.6586889965226547	1.3774832489762647	0.39063247106843313	0.7665100804901801	1.743659499896429	0.345580779578622	0.5894306833945054	1.7788413444904645	0.4097038437886996	0.6020587165047792	1.7869748647623755	0.35144021443711804	0.8799382593675873	1.7891406094688986	0.16356086677892925	0.540999086324504	0.9798239489220684	0.16666721465205125	0.6429590503451803	1.3769594015734195	0.1734264002605123	0.7527912507375341	1.7355677882839333	0.1950078913735793	0.5557229214067001	1.7679045951565138	0.13468163047708057	0.6105146492013894	1.7823335449340052	0.19179736470578945	0.8243852249348077	1.7934453953477223	0.281098500537162	0.4144839296124889	0.4418840874999252	0.2761888276972241	0.27075596169600774	0.19681616068994862	0.2754085257626658	0.2545618162671361	0.3513303474862428	0.45136630048397147	0.41860515428374345	0.4861400793358913	0.5487594343093577	0.4192604296074208	0.7176120319554948	0.36934255696480506	0.34571960732944096	0.8819945936526724	0.26647296373885276	0.3214801278816015	0.9129884545734166	0.25773430644845496	0.33624082922668064	0.9511443780462919	0.26641011393059544	0.3426119378776995	0.961504333909583	0.12903765642925985	0.4328733280116538	0.5000884830272959	0.04052665258825838	0.47535975135526487	0.7613159569870462	0.20956150052102213	0.3261318028853686	0.8824657495995589	0.32065304130948025	0.28073021022093114	0.8959173057397857	0.3315093320791631	0.2856725280853424	0.930603554243846	0.28207485643216956	0.35655350707345773	0.9677487463216421
177	3.339622641509434	0.40534456383809137	0.5250146207376071	0.9698411288753696	0.40578933304613074	0.658323959949761	1.3786277225122272	0.39097851725530164	0.7673258757978296	1.743984061838769	0.34595716783771413	0.5906296546349388	1.780747505979835	0.4095644486934414	0.601696161889433	1.7869235308128109	0.35179650473182944	0.8800869327116914	1.7890917880692658	0.16382279664470603	0.5404551496589654	0.9787083712127926	0.16665509437882509	0.6429271300016732	1.3757803223666412	0.1735647636814622	0.7527428760794957	1.7355027854140466	0.19501131996053725	0.5556440761475722	1.7679261258580534	0.13541558136373671	0.6081165790012716	1.7829282469734458	0.19169540198841126	0.824361556001363	1.7934431771376094	0.2811365803862121	0.4142588698199131	0.44214452699233947	0.2759062449441977	0.2698348994916792	0.1974684712111871	0.2750694573719982	0.25443702198537216	0.35133904271113836	0.4513131540400862	0.4183564380781312	0.48521854226376204	0.5486909516278298	0.41938092982349506	0.7176235818070352	0.3682681939087762	0.3454692163418139	0.8819474789084275	0.2661480746758483	0.3212502437701244	0.9122834861079446	0.2578356290832359	0.3356045203579681	0.950113038332602	0.2661202903619609	0.3419466800794818	0.9614835539852532	0.12874652987239343	0.43194278125334445	0.5004807164068523	0.04051016335334466	0.47513710120852076	0.7614754865660054	0.20952324134854233	0.3256989012340639	0.8827197350558227	0.32051751997686906	0.28097225957182315	0.8955154258971335	0.3314453278707502	0.285898933429513	0.9296995273117872	0.28205417372577624	0.35647633296428805	0.9677248727554574
